<svg width="86" height="69" viewBox="0 0 72 72" xmlns="http://www.w3.org/2000/svg">
    <path d="M35.92 1.003c-1.254 0-2.507.068-3.753.202a33 33 0 00-4.03.682A34.961 34.961 0 009.61 12.927c-12.697 14.576-11.173 36.685 3.403 49.38 13.954 12.156 34.96 11.347 47.938-1.845a34.941 34.941 0 009.97-24.46c0-19.329-15.67-34.999-35-34.999zm-23.473 12.29c.185-.19.376-.374.564-.56.217-.213.433-.427.654-.634.195-.182.396-.357.595-.534.225-.2.45-.4.68-.592.203-.171.412-.336.62-.501a22.6 22.6 0 011.352-1.02c.242-.173.484-.35.73-.51a31.226 31.226 0 012.11-1.306 36.34 36.34 0 011.478-.796 34.03 34.03 0 011.52-.718l.83-.35c.241-.099.481-.196.725-.289.283-.107.568-.208.854-.308.244-.085.488-.17.735-.25.29-.094.584-.18.878-.266.246-.07.49-.144.737-.21.094-.025.189-.045.283-.07a28.948 28.948 0 00-7.456 12.108 39.185 39.185 0 01-7.994-3.076c.039-.041.071-.082.105-.117zm-1.677 1.88a40.535 40.535 0 008.853 3.523 60.54 60.54 0 00-2.355 16.14H3.28a32.596 32.596 0 017.49-19.664zm0 41.66A32.6 32.6 0 013.28 37.17h13.988a60.534 60.534 0 002.355 16.14 40.562 40.562 0 00-8.853 3.524zm16.732 10.73c-.236-.06-.48-.137-.722-.208-.295-.086-.592-.173-.883-.267-.247-.08-.49-.165-.732-.25a27.79 27.79 0 01-1.58-.596l-.834-.35a30.47 30.47 0 01-.71-.324 51.834 51.834 0 01-.817-.395 22.14 22.14 0 01-.7-.36 32.536 32.536 0 01-2.227-1.308 30.594 30.594 0 01-.662-.432 32.25 32.25 0 01-.738-.518c-.214-.153-.427-.305-.637-.466a30.09 30.09 0 01-.714-.56c-.207-.164-.412-.327-.614-.496-.233-.194-.458-.396-.685-.596-.198-.177-.397-.35-.591-.53-.223-.208-.439-.424-.656-.637-.188-.186-.379-.369-.563-.559l-.1-.108a39.157 39.157 0 017.993-3.078 28.955 28.955 0 007.457 12.108c-.095-.025-.19-.045-.285-.07zm7.25 1.015c-4.991-.71-9.368-5.92-12.121-13.614a59.289 59.289 0 0112.122-1.427v15.04zm0-17.374c-4.326.056-8.635.57-12.854 1.533a58.364 58.364 0 01-2.297-15.567h15.152v14.034zm0-16.368h-15.15a58.352 58.352 0 012.296-15.566 61.46 61.46 0 0012.855 1.533v14.033zm0-16.367a59.226 59.226 0 01-12.121-1.427c2.753-7.694 7.13-12.904 12.122-13.613v15.04zm26.317-3.297a32.6 32.6 0 017.49 19.664H54.571a60.534 60.534 0 00-2.356-16.14 40.577 40.577 0 008.854-3.524zM44.328 4.442c.245.061.488.138.731.21.295.086.592.172.883.266.246.08.489.165.732.25a27.79 27.79 0 011.58.596l.834.35c.238.105.474.213.71.325.272.128.543.259.817.394.233.117.466.233.7.36a32.536 32.536 0 012.227 1.308c.222.141.443.285.661.432.249.168.494.342.738.517a27.062 27.062 0 011.352 1.024c.205.163.412.327.614.497.233.194.458.396.684.596.199.176.398.35.592.53.223.208.439.423.656.637.187.185.379.369.563.559l.1.108a39.157 39.157 0 01-7.994 3.078 28.954 28.954 0 00-7.465-12.107c.094.025.19.045.285.07zM37.086 3.43c4.992.709 9.368 5.92 12.122 13.613a59.289 59.289 0 01-12.122 1.427V3.43zm0 17.374A61.439 61.439 0 0049.94 19.27a58.364 58.364 0 012.298 15.566H37.086V20.803zm0 16.367h15.152a58.352 58.352 0 01-2.298 15.567 61.458 61.458 0 00-12.854-1.533V37.17zm0 31.408V53.537c4.079.057 8.141.535 12.122 1.427-2.754 7.694-7.13 12.904-12.122 13.614zm22.306-9.866c-.185.19-.375.374-.563.56-.217.213-.434.428-.657.636-.193.18-.393.35-.591.53-.226.202-.452.402-.683.596-.204.17-.411.335-.62.5a22.6 22.6 0 01-1.352 1.02c-.24.173-.483.35-.73.511-.22.15-.443.294-.667.436-.25.161-.501.317-.755.467-.233.137-.456.27-.686.401a34.732 34.732 0 01-1.48.796 34.03 34.03 0 01-1.52.718l-.829.35c-.241.098-.482.196-.724.288-.285.108-.57.21-.858.309-.242.085-.485.17-.731.25-.292.094-.584.18-.881.266-.244.072-.489.144-.735.21-.095.025-.19.045-.284.07a28.948 28.948 0 007.457-12.108c2.769.73 5.45 1.762 7.994 3.076-.039.042-.072.083-.105.118zm1.677-1.878a40.535 40.535 0 00-8.854-3.523 60.54 60.54 0 002.356-16.141h13.988a32.595 32.595 0 01-7.49 19.664z"
          fill="#FFD322" fill-rule="nonzero" stroke="#FFD322"/>
</svg>
