<svg width="86" height="69" xmlns="http://www.w3.org/2000/svg"><path d="M85.65 20.04L71.284 1.385a1.684 1.684 0 00-2.237-.392l-9.275 5.896H47.675c-.157 0-.312.034-.463.077l-9.38 2.7L28.1 7.003 18.644.993a1.683 1.683 0 00-2.213.362L.54 21.03a1.681 1.681 0 00.212 2.332l8.328 7.164 7.472 10.065a5.95 5.95 0 00.131 8.27 5.923 5.923 0 003.608 1.709c-.046.298-.07.601-.07.909 0 1.588.62 3.081 1.742 4.204a5.91 5.91 0 004.206 1.742l.064-.002-.003.12c0 1.589.62 3.082 1.742 4.205a5.913 5.913 0 004.206 1.741c.314 0 .624-.025.929-.072.129 1.322.7 2.609 1.71 3.62a5.928 5.928 0 004.206 1.738 5.93 5.93 0 004.206-1.739l.91-.909.381.308a5.929 5.929 0 004.136 1.67c1.523 0 3.047-.58 4.206-1.739a5.927 5.927 0 001.738-4.297 5.938 5.938 0 006.038-6.032 5.916 5.916 0 004.298-1.74 5.927 5.927 0 001.74-4.298 5.933 5.933 0 004.298-1.738 5.953 5.953 0 00.782-7.443l5.456-11.42 8.202-7.056a1.682 1.682 0 00.235-2.301zM18.105 4.638l6.8 4.322-14.792 18.014-5.928-5.1 13.92-17.236zm.96 38.194l2.052-2.052a2.577 2.577 0 011.597-.745l.043-.002a2.567 2.567 0 012.062.8c.951 1.004.9 2.646-.114 3.66l-1.99 1.989a2.585 2.585 0 01-3.65 0 2.583 2.583 0 010-3.65zm5.28 10.47a2.56 2.56 0 01-.757-1.824c0-.69.269-1.337.757-1.825l3.98-3.978a2.61 2.61 0 012.934-.507c1.005.479 1.57 1.569 1.423 2.665a2.723 2.723 0 01-.77 1.555l-3.916 3.914a2.565 2.565 0 01-1.826.756c-.69 0-1.337-.268-1.825-.756zm6.009 6.065a2.56 2.56 0 01-.757-1.824c0-.69.269-1.338.757-1.825l3.978-3.978a2.611 2.611 0 013.121-.41 2.568 2.568 0 011.233 2.609 2.726 2.726 0 01-.765 1.514l-3.916 3.914a2.565 2.565 0 01-1.826.756c-.69 0-1.338-.268-1.825-.756zm6.844 5.289a2.583 2.583 0 010-3.65l2.052-2.05a2.709 2.709 0 01.199-.18 2.573 2.573 0 011.144-.532 2.44 2.44 0 01.248-.034l.09-.004c.06-.004.12-.007.18-.007a2.566 2.566 0 012.008 1.004c.774 1.012.67 2.514-.29 3.475l-1.98 1.979a2.585 2.585 0 01-3.651-.001zm31.397-18.775a2.585 2.585 0 01-3.651 0 1.532 1.532 0 00-.115-.103L54.007 34.846a1.683 1.683 0 00-2.392 2.367l10.939 11.049.004.004a2.583 2.583 0 01-1.826 4.406c-.69 0-1.339-.268-1.826-.756l-7.318-7.391a1.683 1.683 0 00-2.392 2.367l7.206 7.278c.037.045.076.09.118.131a2.583 2.583 0 010 3.65 2.587 2.587 0 01-3.652 0l-3.994-4.035a1.683 1.683 0 00-2.393 2.367l3.883 3.92a1.5 1.5 0 00.118.133 2.583 2.583 0 010 3.65 2.585 2.585 0 01-3.65 0c-.116-.116-.253-.205-.382-.305-.11-.083-.14-.142-.084-.275.056-.136.139-.258.194-.394.062-.152.112-.309.16-.466a6.063 6.063 0 00.218-2.588 5.92 5.92 0 00-2.514-4.094 5.91 5.91 0 00-2.503-.97c.433-1.912-.087-3.984-1.442-5.414a5.905 5.905 0 00-4.416-1.86c.036-1.545-.526-3.08-1.592-4.205a5.907 5.907 0 00-4.24-1.86 6.055 6.055 0 00-1.435.153 5.9 5.9 0 00-1.967-3.606 5.901 5.901 0 00-3.805-1.442 5.963 5.963 0 00-4.063 1.527l-6.506-8.763L28.02 10.47l4.96 1.357-6.478 11.427a5.904 5.904 0 00-.558 4.516 5.905 5.905 0 003.063 3.728l.02.01c.232.115.471.215.714.298a5.911 5.911 0 003.522.11 5.91 5.91 0 003.589-2.8l4.21-7.426 7.517.533L68.595 42.23a2.584 2.584 0 010 3.65zm.697-7.712l-18.778-18.77a1.685 1.685 0 00-1.07-.488l-9.204-.652a1.71 1.71 0 00-1.584.849l-4.733 8.35c-.34.599-.893 1.03-1.558 1.214a2.567 2.567 0 01-1.961-.242 2.564 2.564 0 01-1.215-1.557 2.56 2.56 0 01.242-1.96l6.319-11.147 2.56-.737.05-.017 9.557-2.758h11.546L73.877 28.57l-4.585 9.599zm6.79-12.24L62.752 8.983l6.803-4.325L82.011 20.83l-5.929 5.1z" fill="#F88B36" fill-rule="nonzero"/></svg>
