<svg width="70" height="77" xmlns="http://www.w3.org/2000/svg"><g fill="#6292A5" fill-rule="nonzero"><path d="M47.404 62.043a15.273 15.273 0 00-9.619-11.914l2.447-8.609c.114-.4.034-.831-.215-1.164a1.318 1.318 0 00-1.055-.528H25.755c-.415 0-.805.195-1.055.528-.25.333-.33.764-.215 1.164l2.447 8.61a15.273 15.273 0 00-9.619 11.914l-.903 5.748a7.994 7.994 0 001.803 6.417A7.908 7.908 0 0024.238 77h16.241a7.908 7.908 0 006.025-2.79 7.994 7.994 0 001.803-6.418l-.903-5.749zm-19.898-19.56h9.705l-1.966 6.919a14.965 14.965 0 00-5.773 0l-1.966-6.92zm16.99 30.001a5.265 5.265 0 01-4.017 1.86H24.238a5.272 5.272 0 01-4.017-1.86 5.33 5.33 0 01-1.202-4.278l.903-5.749c.802-5.113 4.623-9.22 9.645-10.366l-4.886 6.878 2.15 1.543 4.207-5.921v6.478h2.641v-6.478l4.209 5.922 2.149-1.543-4.887-6.878c5.022 1.146 8.843 5.252 9.645 10.365l.903 5.75a5.322 5.322 0 01-1.202 4.277z"/><path d="M68.137 50.244c-.683-6.86-5.316-12.674-11.826-14.843l2.412-8.484c.114-.4.034-.832-.216-1.165a1.318 1.318 0 00-1.054-.528H44.245c-.414 0-.805.196-1.054.528-.25.333-.33.764-.216 1.165l2.412 8.483a17.287 17.287 0 00-4.544 2.303l1.522 2.17a14.6 14.6 0 015.319-2.356l-5.762 6.757 2.005 1.728 5.601-6.568v8.36h2.642v-8.36l5.6 6.568 2.006-1.728-5.762-6.758c6.233 1.36 10.879 6.61 11.495 12.992L67.3 68.506a5.328 5.328 0 01-1.34 4.092 5.27 5.27 0 01-3.918 1.747H49.528V77h12.514a7.906 7.906 0 005.876-2.62 7.992 7.992 0 002.01-6.138l-1.79-17.998zm-22.14-22.365h9.705l-1.957 6.886a17.186 17.186 0 00-5.793-.004l-1.956-6.882z"/><path d="M4.089 72.58a5.335 5.335 0 01-1.32-4.12l3.525-32.596C7.39 25.592 15.36 17.42 25.555 16.114l-7.447 9.623 2.086 1.63 6.881-8.894v12.061h2.642V18.473l6.882 8.895 2.085-1.63-7.444-9.62a22.307 22.307 0 0113.364 6.863l1.925-1.818a24.947 24.947 0 00-10.73-6.744l3.66-12.722A1.333 1.333 0 0039.246.53c-.25-.334-.64-.53-1.056-.53H18.38c-.411 0-.799.192-1.048.52-.25.328-.334.754-.227 1.153l3.45 12.869C11.31 17.619 4.707 25.844 3.668 35.577L.143 68.174a7.992 7.992 0 001.98 6.18A7.906 7.906 0 008.02 77h7.168v-2.655H8.02c-1.5-.001-2.93-.642-3.932-1.764zM20.103 2.656h16.33l-3.195 11.106a24.575 24.575 0 00-4.842-.485c-1.78 0-3.554.19-5.294.567l-3-11.188z"/></g></svg>
